<svg width="496" height="496" viewBox="0 0 496 496" fill="none" xmlns="http://www.w3.org/2000/svg">
<g clip-path="url(#clip0_8_30)">
<path d="M212.297 144.292C214.875 140.383 217.656 135.282 219.971 131.102C225.277 121.523 230.235 111.731 235.616 102.169C238.788 96.809 241.344 90.6973 245.566 86.0705C247.289 84.1823 250.68 83.0268 253.077 82.536C259.792 81.162 266.91 83.2855 270.705 89.2337C273.617 93.8015 276.138 98.6863 278.758 103.445C285.05 114.335 290.602 125.583 296.837 136.507C298.28 139.037 299.887 141.361 301.34 143.829C307.287 141.87 313.407 140.151 319.402 138.32C329.827 135.135 340.262 131.951 350.74 128.951C354.82 127.783 359.005 126.688 363.245 126.331C372.482 126.358 379.51 134.111 379.848 143.121C379.995 147.073 378.085 153.071 376.99 156.98C373.727 168.619 370.167 180.182 366.997 191.847C365.69 196.651 364.553 201.602 363.095 206.331C365.59 207.129 369.415 208.981 371.865 210.179C378.512 213.432 385.232 216.693 391.81 220.089C400.205 224.424 409.035 228.006 416.953 233.157C423.445 237.381 426.572 245.818 424.212 253.212C423.32 255.95 421.687 258.387 419.492 260.25C414.66 264.317 408.155 266.98 402.647 270.045C393.405 275.183 384.25 280.465 374.93 285.465C370.94 287.605 364.415 290.527 361.198 293.632C357.83 296.887 355.573 302.82 353.228 306.945C351.258 310.41 349.068 313.745 347.035 317.172C346.243 318.51 345.51 319.955 345.21 321.492C344.797 323.605 344.977 325.872 344.8 328.02C344.432 332.485 343.93 336.91 343.61 341.388C342.91 351.248 341.863 361.098 341.2 370.965C340.893 375.505 340.425 385.82 338.842 389.74C337.345 393.44 334.47 396.7 330.897 398.51C326.902 400.533 320.347 400.71 316.155 399.272C309.562 397.012 292.332 383.93 285.59 379.073C278.812 374.275 268.765 368.018 262.622 363.033C259.932 362.933 253.482 362.428 251.215 363.775C246.932 366.428 242.72 369.195 238.585 372.073C236.445 373.553 231.432 377.16 229.395 378.23C224.374 381.863 219.265 385.517 214.104 388.922C209.456 391.987 203.96 396.918 198.795 398.778C191.053 401.565 181.984 400.04 177.137 392.92C172.705 386.405 173.323 378.462 172.833 370.922C172.505 366.162 172.021 361.412 171.74 356.647C170.918 345.052 168.93 332.117 168.704 320.57C166.47 317.035 164.137 313.363 161.962 309.79C159.496 305.738 155.857 296.467 152.897 293.61C151.282 292.05 142.16 287.27 139.689 285.925C130.295 280.777 120.943 275.552 111.634 270.252C106.538 267.337 101.497 264.455 96.5508 261.345C90.0593 257.445 87.9948 250.847 89.4848 243.629C90.543 238.501 94.507 234.313 98.985 231.795C111.321 224.859 124.638 219.534 137.153 212.889C141.61 210.523 147.02 208.755 150.915 205.585C147.448 194.224 144.574 182.443 141.311 170.897C139 161.677 135.254 152.647 134.37 143.133C134.135 140.61 135.412 137.396 136.53 135.207C139.415 129.558 146.945 125.177 153.301 126.352C159.824 127.558 166.318 129.987 172.732 131.876C182.16 134.698 191.56 137.61 200.93 140.614C204.388 141.734 209.056 143.052 212.297 144.292Z" fill="#F48717"></path>
<path d="M262.622 363.033C263.41 362.573 272.543 361.545 274.598 361.21C280.333 360.275 286.513 358.06 291.878 357.295C287.998 363.62 286.152 366.397 285.672 374.215C285.59 375.582 285.69 377.935 285.59 379.073C278.812 374.275 268.765 368.018 262.622 363.033Z" fill="#B85000"></path>
<path d="M221.497 356.957C227.877 358.02 234.712 361.27 241.485 361.745C243.433 361.88 249.788 362.7 251.215 363.775C246.932 366.427 242.72 369.195 238.585 372.073C236.445 373.553 231.432 377.16 229.395 378.23C228.477 369.645 226.007 364.117 221.497 356.957Z" fill="#B85000"></path>
<path d="M202.846 212.83C209.147 211.894 216.673 213.936 221.752 217.63C231.386 224.636 233.134 234.57 233.088 245.793C233.052 254.717 232.86 262.61 227.172 270.135C222.494 276.325 217.381 279.072 209.804 280.212C194.051 281.542 181.748 272.385 179.578 256.413C176.984 237.317 180.057 216.198 202.846 212.83Z" fill="#F7F6F5"></path>
<path d="M210.468 226.291C211.047 226.238 211.63 226.222 212.211 226.241C216.196 226.371 219.346 227.841 222.214 230.746C227.163 235.937 226.293 244.873 226.226 251.587C226.137 260.447 218.914 267.198 210.186 266.795C196.302 263.365 197.464 251.832 197.976 240.297C199.8 240.668 202.183 241.305 203.972 240.772C211.05 238.662 210.382 232.359 206.018 228.045C207.617 227.257 208.692 226.636 210.468 226.291Z" fill="#B85000"></path>
<path d="M329.363 231.105C331.643 230.894 334.31 230.812 335.73 232.895C336.675 234.186 336.735 237.839 334.813 238.326C331.638 239.062 328.215 239.003 324.96 239.332C320.103 239.823 315.133 240.861 310.495 242.427C307.14 243.559 302.57 245.11 299.505 246.841C310.003 245.705 326.398 244.985 335 251.925C337.165 253.67 334.57 259.105 329.91 257.073C327.68 256.1 322.96 254.505 320.513 253.885C308.415 251.778 296.48 252.638 285.233 257.348C284.363 257.663 281.148 258.932 280.323 258.272C278.293 256.597 278.423 254.275 280.258 252.518C293.478 239.865 311.445 232.299 329.363 231.105Z" fill="#B85000"></path>
<path d="M301.395 188.337C307.097 187.596 314.022 189.276 318.977 192.178C322.862 194.472 327.92 197.807 329.375 202.311C330.372 205.397 326.845 207.28 324.277 207.675C321.622 207.114 317.905 201.754 312.99 199.791C310.812 198.919 308.525 198.344 306.192 198.08C303.415 197.748 296.982 198.638 296.33 195.446C295.377 190.791 296.75 188.834 301.395 188.337Z" fill="#B85000"></path>
<path d="M204.884 179.351C208.843 178.735 218.381 178.994 217.438 185.01C216.787 189.167 212.997 189.06 209.679 188.821C203.065 188.345 199.054 189.568 193.805 193.475C192.868 194.247 190.445 196.363 189.383 196.507C184.671 197.145 182.45 191.42 185.713 188.156C190.821 183.048 197.81 180.031 204.884 179.351Z" fill="#B85000"></path>
<path d="M276.705 284.42C282.517 288.085 267.81 293.455 265.552 294.055C256.315 296.427 246.514 295.082 238.256 290.31C237.164 289.635 235.62 288.52 236.928 287.203C239.23 286.77 244.826 289.912 247.494 290.617C257.872 293.355 268.4 291.578 276.705 284.42Z" fill="#B85000"></path>
</g>
<defs>
<clipPath id="clip0_8_30">
<rect width="496" height="496" fill="white"></rect>
</clipPath>
</defs>
</svg>