<svg width="496" height="496" viewBox="0 0 496 496" fill="none" xmlns="http://www.w3.org/2000/svg">
<g clip-path="url(#clip0_9_41)">
<path d="M212.143 144.138C217.819 136.506 222.071 127.068 226.712 118.766C229.887 113.088 232.932 107.317 236.209 101.696C241.201 93.1328 243.138 84.025 254.352 82.3098C258.96 81.599 263.66 82.799 267.365 85.6325C271.292 88.5923 276.292 99.2838 278.882 103.928C282.135 109.684 285.347 115.464 288.52 121.265C292.695 129.087 296.297 136.388 301.302 143.802C320.47 138.62 339.305 131.788 358.587 127.1C363.525 125.9 367.292 126.127 371.69 128.675C376.967 131.565 381.067 139.694 379.847 145.62C378.587 151.723 376.672 158.244 374.917 164.28C372.245 173.308 369.62 182.35 367.04 191.405C365.692 196.177 364.062 201.693 363.005 206.501C367.502 207.894 373.667 210.979 377.937 213.103L396.49 222.415C403.152 225.717 410.475 228.395 416.605 232.64C419.247 234.472 421.682 236.861 423.17 239.742C425.102 243.484 425.592 249 424.287 253.005C423.54 255.308 422.092 257.662 420.307 259.3C415.367 263.83 408.255 266.73 402.457 269.98C393.307 275.11 384.23 280.465 374.972 285.395C370.595 287.727 364.822 290.035 361.187 293.432C357.695 296.697 355.71 302.4 353.382 306.552C351.55 309.827 349.555 313.01 347.695 316.267C346.712 317.992 345.68 319.882 345.25 321.832C344.542 325.04 344.762 328.548 344.432 331.82C343.78 338.313 343.377 344.81 342.84 351.31C342.325 357.537 341.637 363.75 341.197 369.987C340.85 374.94 340.46 385.127 338.88 389.422C337.565 393.002 334.735 396.673 331.27 398.383C327.245 400.368 320.532 400.803 316.31 399.413C309.975 397.328 292.355 383.937 286.05 379.302C282.562 376.882 263.775 363.455 261.605 363.068C258.927 362.938 253.382 362.585 250.942 363.86C243.476 368.475 236.795 373.313 229.55 378.138L214.463 388.703C210.521 391.48 206.746 394.468 202.656 396.943C191.095 403.94 176.5 399.525 174.075 385.362C172.968 378.9 173.106 373.062 172.611 366.707C171.664 354.697 170.588 342.697 169.385 330.707C169.154 328.365 169.054 322.613 168.514 320.815C167.529 317.545 163.755 312.885 161.886 309.522C159.431 305.105 156.95 298.652 154.308 294.81C152.366 291.982 143.146 287.55 139.707 285.682L113.484 271.128C106.868 267.423 96.9592 262.54 91.7712 256.935C89.2494 254.212 88.7372 247.738 89.3519 244.312C91.4949 233.412 104.666 228.512 113.378 224.259L138.013 212.288C142.102 210.329 147.414 208.083 150.98 205.525C149.369 200.781 148.211 195.829 146.926 190.984C145.569 186.015 144.178 181.055 142.752 176.105L138.401 160.904C136.691 155.126 134.767 149.278 134.081 143.264C133.821 140.986 135.025 137.827 135.963 135.791C138.919 129.378 146.857 125.258 153.8 126.472C158.848 127.355 163.821 129.073 168.761 130.628L188.185 136.719L205.126 141.988C207.101 142.606 210.322 143.423 212.143 144.138Z" fill="#F4811A"></path>
<path d="M291.88 357.245L291.772 357.47C290.945 359.158 289.69 360.947 288.77 362.652C285.365 368.975 285.847 372.81 286.05 379.302C282.562 376.882 263.775 363.455 261.605 363.068C263.475 362.683 266.415 362.323 268.345 362.19C276.287 361.638 284.245 358.38 291.88 357.245Z" fill="#CB5D03"></path>
<path d="M221.363 356.89C228.698 358.39 235.656 361.37 243.286 362.01C244.763 362.135 250.065 363.097 250.943 363.86C243.476 368.475 236.795 373.313 229.55 378.138C228.768 371.093 225.945 362.388 221.363 356.89Z" fill="#CB5D03"></path>
<path d="M302.052 198.071C317.192 196.245 329.35 206.121 331.262 221.121C333.535 238.941 330.015 258.763 309.03 261.663C289.73 264.06 278.225 248.052 279.187 230.374C279.64 222.037 279.07 215.789 284.525 208.502C289.225 202.222 294.44 199.318 302.052 198.071Z" fill="#F6F5F4"></path>
<path d="M297.837 210.6C298.267 210.566 298.697 210.547 299.127 210.544C303.072 210.522 306.353 212.075 309.17 214.799C313.555 219.039 313.24 224.372 313.287 229.981C313.335 235.598 313.155 240.446 308.867 244.585C305.635 247.707 302.125 248.779 297.703 248.769C284.633 246.299 285.667 233.984 286.017 223.794C290.192 224.999 295.607 224.79 296.487 219.343C296.962 216.405 295.142 214.155 293.502 211.913C295.162 211.095 296.072 210.87 297.837 210.6Z" fill="#CB5D03"></path>
<path d="M207.333 197.849C213.72 197.467 220.011 199.545 224.916 203.655C231.127 208.939 233.996 215.959 234.47 223.943C235.086 234.32 235.045 245.128 227.77 253.358C223.015 258.735 217.409 261.24 210.393 261.778C194.564 262.578 184.231 252.2 182.582 236.658C180.598 217.951 185.508 199.746 207.333 197.849Z" fill="#F6F5F4"></path>
<path d="M213.271 210.812C217.406 210.548 221.348 212.035 224.223 215.092C228.845 220.061 227.961 228.02 227.973 234.37C227.99 243.334 221.248 249.435 212.479 248.982C199.411 245.733 200.393 235.072 200.962 224.168C210.798 226.304 214.076 220.099 208.547 212.124C210.372 211.455 211.366 211.104 213.271 210.812Z" fill="#CB5D03"></path>
<path d="M301.42 164.068C310.44 163.505 321.83 166.844 326.89 175.553C328.563 178.428 324.383 180.814 321.878 181.516C318.045 179.592 316.028 175.944 310.358 174.233C308.055 172.874 299.017 174.022 297.705 172.576C293.067 167.465 297.248 164.754 301.42 164.068Z" fill="#CB5D03"></path>
<path d="M209.092 163.861C212.907 163.977 218.903 163.884 218.405 169.547C218.055 173.483 214.757 173.182 211.728 173.045C204.297 172.709 200.516 174.684 194.825 179.196C189.772 183.621 183.967 177.221 188.813 172.448C194.538 166.81 201.167 164.27 209.092 163.861Z" fill="#CB5D03"></path>
<path d="M261.927 246.414L261.55 245.994L261.69 245.511C265.962 243.256 271.185 244.983 275.105 247.08C278.185 248.728 282.45 255.31 280.402 258.455L279.902 258.595L279.557 258.358C279.46 259.12 279.47 259.457 279.095 260.142C279.392 260.69 279.712 261.095 279.38 261.823C278.575 263.578 276.485 267.358 275.377 268.715C277.667 270.285 279.69 272.533 280.627 275.185L280.817 274.593H281.355C282.492 276 281.832 279.63 281.19 281.245L280.795 281.508L280.662 281.313C277.525 288.898 270.085 292.063 262.185 290.793C263.082 290.788 263.305 290.838 264.142 290.47L264.16 289.998L264.25 290.133L263.77 290.528L264.065 289.873L263.692 289.612C266.747 289.582 269.875 289.093 272.565 287.593C279.505 283.723 280.802 275.058 274.087 270.23C272.46 269.06 271.817 269.02 269.882 268.56C272.242 266.295 275.792 262.718 276.407 259.84C279.372 245.965 261.87 245.204 254.18 252.025C252.815 253.238 250.742 255.135 249.597 255.74L249.329 255.242C251.375 251.235 257.86 247.961 261.927 246.414Z" fill="url(#paint0_linear_9_41)"></path>
<path d="M261.928 246.414L261.55 245.994L261.69 245.511C265.963 243.256 271.185 244.983 275.105 247.08C278.185 248.728 282.45 255.31 280.403 258.455L279.903 258.595L279.558 258.358C279.548 256.963 279.618 255.095 279.148 253.808C276.405 246.286 268.683 244.742 261.928 246.414Z" fill="#FDBC6F"></path>
<path d="M279.095 260.142C279.393 260.69 279.713 261.095 279.38 261.823C278.575 263.578 276.485 267.357 275.378 268.715C274.575 267.965 274.648 268.267 274.593 267.427C277.003 264.345 277.385 262.697 279.095 260.142Z" fill="#FDBC6F"></path>
<path d="M280.627 275.185L280.817 274.592H281.355C282.492 276 281.832 279.63 281.19 281.245L280.795 281.508L280.662 281.312C280.922 278.997 280.87 277.472 280.627 275.185Z" fill="#FDBC6F"></path>
<path d="M261.745 254.947C262.972 254.872 265.125 255.442 265.865 256.362C269.42 260.79 265.607 265.442 262.442 268.095C261.867 268.437 261.602 268.67 260.93 268.712C261.06 267.497 264.125 264.36 264.562 262.133C265.37 258.02 263.315 258.077 261.745 254.947Z" fill="#6C0203"></path>
<path d="M259.872 269.432C261.802 270.072 262.995 270.04 264.905 271.195C268.532 273.388 270.187 276.485 267.61 280.312C267.007 280.53 267.14 280.488 266.512 280.578C265.842 279.608 266.12 277.098 265.787 275.67C265.242 273.33 261.895 272.1 259.845 270.79C259.49 270.003 259.555 270.432 259.872 269.432Z" fill="#6C0203"></path>
<path d="M262.185 290.793C259.565 290.635 248.545 287.99 249.809 284.397C249.975 284.272 250.14 284.147 250.308 284.025C251.188 284.782 253.438 286.845 254.365 287.332C257.09 288.755 260.745 289.32 263.693 289.612L264.065 289.872L263.77 290.527L264.25 290.133L264.16 289.997L264.143 290.47C263.305 290.838 263.083 290.788 262.185 290.793Z" fill="#6C0203"></path>
<path d="M399.385 160.743C397.562 159.927 395.679 159.559 393.655 159.375C388.984 158.951 385.046 160.302 381.456 163.335C376.559 167.474 374.92 173.143 374.406 179.477C373.905 185.649 374.922 191.625 376.055 197.656C377.185 203.668 378.433 209.745 378.333 216.023C378.317 217.031 378.171 218.947 378.228 220.836C378.256 221.773 378.334 222.666 378.496 223.392C378.664 224.144 378.899 224.608 379.156 224.813C379.214 224.859 379.354 224.93 379.621 224.996C379.879 225.06 380.214 225.11 380.623 225.145C381.442 225.214 382.511 225.218 383.761 225.169C386.26 225.07 389.434 224.763 392.678 224.38C399.158 223.615 405.867 222.552 407.982 222.253L407.981 222.253C411.701 221.657 415.637 220.964 419.204 219.98C430.169 216.956 438.836 208.96 440.38 197.439C442.753 179.725 422.757 168.773 408.921 179.669L407.872 180.494L408.12 179.183C408.436 177.505 408.319 176.656 408.133 174.954C407.777 171.705 406.962 168.999 405.556 166.686C404.157 164.384 402.156 162.443 399.385 160.743Z" fill="#F7841A" stroke="#CB5D03"></path>
<path d="M432.257 189.625C431.433 189.259 430.818 189.162 430.359 189.218C429.895 189.275 429.542 189.493 429.254 189.847C428.955 190.214 428.723 190.73 428.542 191.365C428.363 191.995 428.243 192.71 428.147 193.45C427.615 197.572 425.268 200.738 422.365 203.417C421.579 204.143 420.587 204.867 419.743 205.567C418.902 206.264 418.159 206.976 417.659 207.779C417.614 208.422 417.734 208.863 417.962 209.18C418.193 209.503 418.585 209.764 419.205 209.953C423.31 209.221 428.063 206.209 431.039 202.3C434.01 198.396 435.118 193.744 432.257 189.625Z" fill="#FED7B5" stroke="#CB5D03"></path>
<path d="M367.51 228.608C366.323 228.111 365.336 228.039 364.519 228.232C363.689 228.428 362.984 228.91 362.394 229.599C361.2 230.994 360.524 233.189 360.328 235.264C360.115 237.519 360.733 238.649 361.671 239.284C362.67 239.96 364.144 240.162 365.871 240.252C367.797 240.067 369.916 239.75 371.373 238.846C372.09 238.401 372.625 237.827 372.908 237.07C373.193 236.31 373.244 235.308 372.887 233.972C372.761 233.499 372.326 233.203 371.736 232.994C371.451 232.893 371.171 232.827 370.924 232.765C370.808 232.735 370.686 232.703 370.584 232.669C370.533 232.652 370.473 232.629 370.415 232.598C370.364 232.572 370.27 232.517 370.193 232.417C369.384 231.368 369.209 230.711 368.99 230.213C368.802 229.785 368.548 229.363 367.51 228.608Z" fill="#F7841A" stroke="#CB5D03"></path>
</g>
<defs>
<linearGradient id="paint0_linear_9_41" x1="281.642" y1="263.328" x2="255.125" y2="271.808" gradientUnits="userSpaceOnUse">
<stop stop-color="#830602"></stop>
<stop offset="1" stop-color="#500813"></stop>
</linearGradient>
<clipPath id="clip0_9_41">
<rect width="496" height="496" fill="white"></rect>
</clipPath>
</defs>
</svg>