<svg width="496" height="496" viewBox="0 0 496 496" fill="none" xmlns="http://www.w3.org/2000/svg">
<g clip-path="url(#clip0_9_182)">
<path d="M210.305 148.033C213.072 144.788 216.687 137.665 218.834 133.794L235.009 103.98C237.253 99.8277 240.246 93.4119 243.428 90.2804C249.357 84.7069 260.032 84.5774 266.129 89.8854C270.837 93.9822 273.642 101.998 276.894 107.326C284.892 120.419 291.187 134.824 299.552 147.627C312.137 144.262 324.574 140.122 337.099 136.445C344.957 134.14 353.267 131.242 361.477 130.285C363.757 130.019 366.864 131.227 368.869 132.257C375.402 135.718 379.202 143.723 377.557 151.003C375.569 159.786 372.837 168.504 370.289 177.178L360.884 210.349C363.599 210.986 370.702 214.633 373.609 216.066L394.924 226.655C407.587 232.959 426.584 238.046 422.602 256.333C421.382 261.938 416.382 265.133 411.802 267.795C400.652 274.148 389.444 280.395 378.179 286.54C373.369 289.2 362.397 294.105 358.862 297.813C355.574 301.26 352.379 309.058 349.787 313.465C347.939 316.603 344.379 321.29 343.542 324.708C342.884 327.385 343.184 330.315 342.884 333.055C341.392 346.74 340.544 360.525 339.362 374.243C338.937 379.19 338.659 388.668 337.134 393.068C335.969 396.435 333.217 399.998 330.162 401.855C326.234 404.245 319.284 404.573 314.959 403.423C308.694 401.755 290.289 387.743 284.342 383.265C281.277 381.12 261.802 367.385 259.617 366.93C256.604 366.775 251.749 366.413 248.962 367.713C241.688 372.36 234.925 377.173 227.746 381.898C219.016 388.258 206.276 397.68 196.829 402.725C190.953 405.865 178.799 403.275 175.538 397.333C173.813 394.855 172.375 391.568 172.038 388.63C170.964 379.268 170.562 369.29 169.857 359.885C168.982 348.223 167.102 335.99 166.848 324.413C164.647 320.945 162.384 317.463 160.2 313.89C157.636 309.698 154.118 300.473 150.881 297.278C149.757 296.17 141.046 291.54 139.143 290.485L113.691 276.318C107.229 272.745 100.861 269.265 94.6968 265.303C83.0896 257.845 85.2861 242.108 96.7631 235.744C109.493 228.685 122.385 223.604 135.25 216.884C139.921 214.411 144.889 212.864 149.191 209.681L139.177 173.582C136.686 164.822 133.442 155.997 132.438 146.955C132.183 144.652 133.482 140.893 134.678 138.943C143.41 124.696 157.206 131.524 169.332 135.33C183.226 139.692 196.795 143.533 210.305 148.033Z" fill="#F48116"></path>
<path d="M150.233 249.909C152.686 252.96 155.318 255.855 158.619 258.052C170.297 265.825 189.233 265.782 202.73 263.235C219.03 260.157 225.525 254.522 233.147 240.637C236.059 235.37 238.604 229.908 240.762 224.29C241.653 221.926 243.825 213.956 244.884 212.825C251.48 205.779 259.78 209.024 260.82 218.092C256.607 214.752 249.363 214.004 245.789 218.93C243.84 221.617 242.75 226.569 241.369 229.892C239.253 234.929 236.966 239.893 234.513 244.775C227.431 258.862 220.641 265.71 203.999 268.617C186.028 271.757 158.144 272.115 150.046 251.413C149.934 251.13 150.151 250.24 150.233 249.909Z" fill="#B15A02"></path>
<path d="M365.403 211.412C367.798 213.29 371.723 214.756 374.515 216.331C374.408 216.792 374.343 217.234 374.315 217.706C372.708 220.088 369.11 219.988 365.858 222.172C364.828 224.408 364.498 225.228 364.21 227.779C363.3 230.083 362.773 231.06 362.853 233.568L362.76 233.798C361.958 235.812 361.213 238.648 360.565 240.756C357.235 251.63 354.123 261.825 342.573 266.587C327.048 272.515 307.238 271.57 291.658 266.078C285.738 263.99 280.993 260.123 277.328 255.193C275.725 253.035 273.623 250.83 273.815 248.012C277.508 252.475 281.005 256.572 286.458 259.11C301.265 266.002 322.953 267.315 338.418 262.105C355.123 256.475 359.043 241.168 362.015 225.637C362.918 220.918 363.345 215.739 365.403 211.412Z" fill="#B15A02"></path>
<path d="M135.082 215.081C136.9 214.162 137.85 213.763 139.823 213.16C140.591 215.487 141.264 217.767 141.298 220.24C139.761 219.377 138.1 218.406 136.656 217.397C135.634 216.683 135.743 216.475 135.592 215.427L135.082 215.081Z" fill="#B15A02"></path>
<path d="M236.75 268.28C241.281 267.958 248.946 271.962 253.777 272.242C258.615 272.837 264.988 269.632 269.513 269.892C278.105 270.385 273.523 278.918 269.505 282.138C251.173 294.353 224.563 276.88 236.75 268.28Z" fill="#FCFBFB"></path>
<path d="M236.306 276.49C236.354 276.49 246.152 279.105 246.246 279.155C244.081 279.507 237.691 278.327 236.306 276.49Z" fill="#676363"></path>
<path d="M317.325 183.247L317.177 183.064C311.69 176.351 305.057 175.247 296.852 176.309C295.332 176.506 293.102 172.063 293.255 170.854C293.997 165.651 303.31 166.369 307.002 166.778C314.072 167.56 320.665 171.814 325.285 177.069C327.285 179.344 325.042 181.297 324.677 183.228C322.25 183.272 319.742 183.36 317.325 183.247Z" fill="#B15A02"></path>
<path d="M185.521 182.936C184.58 181.581 183.381 180.274 183.815 178.512C184.393 176.16 186.47 174.482 188.287 173.03C194.919 167.73 203.58 165.116 211.988 166.739C215.005 167.321 216.755 170.29 215.71 173.193C214.442 176.722 211.103 175.843 208.205 175.792C203.284 175.706 198.332 177.362 194.36 180.25C193.667 180.755 191.587 182.265 191.374 183.036C191.901 183.321 192.316 183.369 192.897 183.493C186.722 183.237 180.541 183.138 174.361 183.195C176.386 182.76 183.215 182.918 185.521 182.936Z" fill="#B15A02"></path>
<path d="M178.218 192.198C185.233 191.162 193.951 191.419 200.99 191.79C198.886 194.689 195.087 202.264 193.129 205.831L181.845 226.398C179.063 231.538 176.098 237.275 173.126 242.265C170.98 246.628 168.146 251.177 165.617 255.367C161.889 253.192 155.417 248.088 154.136 243.952C153.308 242.845 152.815 241.561 152.26 240.294C154.918 233.726 159.358 226.208 162.754 219.909C167.742 210.656 172.826 201.208 178.218 192.198Z" fill="url(#paint0_linear_9_182)"></path>
<path d="M154.136 243.952C154.124 243.561 153.936 242.865 153.844 242.454C154.489 242.687 154.489 242.702 155.166 242.753C157.956 240.533 169.47 240.698 173.158 241.377L172.927 241.934L173.126 242.265C170.98 246.628 168.146 251.177 165.617 255.367C161.889 253.192 155.417 248.088 154.136 243.952Z" fill="#38383A"></path>
<path d="M300.54 193.112C308.29 191.728 316.273 191.711 324.105 191.774C314.18 208.359 304.613 227.528 295.08 244.599C293.745 247.074 291.128 252.197 289.64 254.315C286.595 252.64 285.133 251.5 282.798 248.926C280.01 246.52 277.5 242.255 275.82 239.056C278.748 232.049 285.35 220.806 289.095 213.751C291.748 208.758 297.66 197.212 300.54 193.112Z" fill="url(#paint1_linear_9_182)"></path>
<path d="M282.797 248.926L283.007 248.71L282.772 248.214C282.91 247.927 283.437 246.851 283.62 246.739C285.977 245.295 292.575 244.699 295.08 244.599C293.745 247.074 291.127 252.198 289.64 254.315C286.595 252.64 285.132 251.5 282.797 248.926Z" fill="#38383A"></path>
<path d="M332.36 192.813C335.967 193.606 340.247 194.515 343.897 195.143C338.337 206.212 331.53 217.843 325.647 228.885C321.78 236.288 317.777 243.621 313.642 250.878C312.34 253.183 309.527 258.408 308.052 260.225C306.387 260.368 299.257 258.982 297.535 258.427C297.507 258.155 297.492 257.882 297.462 257.612C297.45 257.505 297.415 257.398 297.412 257.29C297.345 254.743 328.945 198.287 332.36 192.813Z" fill="#38383A"></path>
<path d="M208.875 193.107C212.813 194.035 216.543 194.823 220.441 195.935C212.686 210.629 204.752 225.229 196.639 239.728C194.242 244.114 191.8 248.475 189.314 252.81C187.899 255.29 186.915 258.01 184.448 259.45L184.143 260.01C181.423 260.173 175.43 259.34 172.773 258.717L173.44 258.457L173.562 258.14C175.339 253.598 181.149 243.791 183.654 239.143L208.875 193.107Z" fill="url(#paint2_linear_9_182)"></path>
<path d="M317.927 184.613C322.797 184.473 327.667 184.502 332.535 184.7C338.452 184.963 366.202 187.011 369.975 189.031C370.552 189.341 370.78 189.545 370.96 190.168L370.745 190.331C368.18 189.306 362.282 188.76 359.222 188.335C340.37 185.718 324.477 185.087 305.467 186.815C295.515 187.988 278.065 190.79 268.735 196.108C266.51 197.377 265.38 202.718 264.635 203.394L264.36 202.994C264.152 200.887 264.742 197.663 265.135 195.565C269.427 194.246 273.747 192.478 278.14 191.176C291.085 187.372 304.447 185.168 317.927 184.613Z" fill="#FCFBFB"></path>
<path d="M217.733 190.114C190.081 183.525 162.575 185.015 134.667 189.876C134.321 189.936 131.902 191.593 131.392 191.891L131.07 191.68C131.001 187.915 137.725 187.872 140.456 187.496C165.782 184.01 192.628 182.123 217.576 189.136C217.859 189.853 217.909 189.568 217.733 190.114Z" fill="#FCFBFB"></path>
<path d="M353.465 238.803C353.303 239.481 353.128 240.156 352.938 240.827C345.815 265.473 314.098 263.882 294.173 258.62C284.633 256.102 278.205 249.07 274.625 240.126C274.19 239.04 273.435 237.203 272.875 236.206L272.705 235.912C280.665 248.959 281.783 253.985 297.535 258.427C299.258 258.982 306.388 260.368 308.053 260.225C316.448 261.255 328.86 260.572 336.525 257.56C345.485 254.04 349.728 247.102 353.465 238.803Z" fill="#C7C7C7"></path>
<path d="M227.817 238.648L228.444 238.98C225.274 247.023 220.072 253.812 211.767 257.115C198.459 262.41 179.168 262.875 165.753 257.763C158.805 255.118 155.465 250.585 152.142 244.466L152.827 244.273C157.797 253.415 163.154 256.175 172.773 258.717C175.43 259.34 181.423 260.173 184.143 260.01C191.167 260.583 201.657 259.453 208.293 257.293C218.186 254.073 223.3 247.499 227.817 238.648Z" fill="#C7C7C7"></path>
<path d="M141.845 193.867C143.621 194.382 145.565 194.674 145.965 196.725C144.377 199.249 140.81 199.925 138.517 198.081C138.352 197.964 137.767 197.176 137.602 196.966C137.385 194.877 140.293 194.279 141.845 193.867Z" fill="#38383A"></path>
<path d="M141.845 193.867C143.621 194.382 145.565 194.674 145.965 196.725C145.6 196.689 145.324 196.602 144.965 196.514C142.503 196.251 140.014 196.404 137.602 196.966C137.385 194.877 140.293 194.279 141.845 193.867Z" fill="#FCFBFB"></path>
<path d="M144.965 196.514C145.324 196.602 145.6 196.689 145.965 196.725C144.377 199.249 140.81 199.925 138.517 198.081L139.042 197.825C140.843 197.977 144.03 198.355 144.965 196.514Z" fill="#9B9C9C"></path>
<path d="M230.71 192.816C233.738 193.965 235.923 194.355 238.809 195.263C239.031 196.546 240.012 202.857 239.483 203.74C238.258 203.091 237.565 197.838 235.58 196.312C233.4 194.637 232.61 194.458 230.086 193.483C230.191 193.014 230.136 193.229 230.71 192.816Z" fill="#FCFBFB"></path>
<path d="M242.86 195.279C243.376 195.252 247.816 195.691 248.021 195.783C250.118 196.724 259.855 195.168 260.863 195.536L260.675 195.905C256.113 197.661 246.786 198.774 242.86 195.279Z" fill="url(#paint3_linear_9_182)"></path>
<path d="M358.593 197.221C358.928 193.543 364.355 193.766 366.483 196.23L366.398 196.602C364.673 196.567 361.1 196.72 359.438 196.991L358.593 197.221Z" fill="#FCFBFB"></path>
<path d="M217.576 189.136C221.559 189.965 226.887 191.374 230.71 192.816C230.136 193.229 230.191 193.014 230.086 193.483C227.83 193.098 220.384 190.827 217.733 190.114C217.909 189.568 217.858 189.853 217.576 189.136Z" fill="#C7C7C7"></path>
<path d="M358.593 197.221L359.438 196.991C360.478 199.072 364.273 197.318 366.078 197.807C365.995 199.209 362.343 199.201 361.313 198.949C360.153 198.665 359.453 198.003 358.593 197.221Z" fill="#9B9C9C"></path>
<path d="M227.817 238.648C228.072 237.948 228.935 235.567 229.268 234.983L229.948 234.906L229.455 234.73L229.791 234.601C229.893 235.6 228.852 237.987 228.444 238.98L227.817 238.648Z" fill="#9B9C9C"></path>
<path d="M150.228 240.92C151.124 242.587 152.243 244.508 152.827 246.273L152.142 246.466C151.354 245.021 150.681 242.509 150.228 240.92Z" fill="#676363"></path>
</g>
<defs>
<linearGradient id="paint0_linear_9_182" x1="176.823" y1="242.014" x2="175.713" y2="192.096" gradientUnits="userSpaceOnUse">
<stop stop-color="#575859"></stop>
<stop offset="1" stop-color="#959595"></stop>
</linearGradient>
<linearGradient id="paint1_linear_9_182" x1="303.2" y1="245.282" x2="297.125" y2="193.721" gradientUnits="userSpaceOnUse">
<stop stop-color="#59595B"></stop>
<stop offset="1" stop-color="#979797"></stop>
</linearGradient>
<linearGradient id="paint2_linear_9_182" x1="186.53" y1="262.068" x2="206.789" y2="192.309" gradientUnits="userSpaceOnUse">
<stop stop-color="#232324"></stop>
<stop offset="1" stop-color="#454445"></stop>
</linearGradient>
<linearGradient id="paint3_linear_9_182" x1="251.953" y1="195.27" x2="252.073" y2="197.079" gradientUnits="userSpaceOnUse">
<stop stop-color="#F9F3EC"></stop>
<stop offset="1" stop-color="#E9E5EF"></stop>
</linearGradient>
<clipPath id="clip0_9_182">
<rect width="496" height="496" fill="white"></rect>
</clipPath>
</defs>
</svg>