<svg width="484" height="474" viewBox="0 0 484 474" fill="none" xmlns="http://www.w3.org/2000/svg">
<g clip-path="url(#clip0_10_30)">
<path d="M197.576 138.296C199.318 136.365 203.107 128.471 204.522 125.759L218.577 99.3843C221.66 93.5714 224.617 87.739 227.984 82.0847C231.35 76.4304 238.482 74.2964 244.603 75.2001C254.5 76.6612 257.871 87.5287 262.271 95.2717C266.177 102.151 269.8 109.313 273.519 116.31C277.439 123.565 280.93 131.644 285.59 138.417C287.354 137.672 290.662 136.719 292.568 136.098L307.687 131.269L327.143 125.114C332.822 123.329 341.693 120.148 347.715 120.086C351.017 120.052 356.909 123.482 358.944 126.224C361.33 129.437 363.352 133.741 363.227 137.966C363.201 141.754 361.51 146.145 360.568 149.851C357.507 161.869 353.841 173.745 350.526 185.667C349.498 189.359 346.856 198.165 346.523 201.594L346.493 201.923C349.141 202.443 355.872 206.002 358.443 207.308L378.38 217.582C385.662 221.256 393.983 224.378 400.624 228.976C409.334 235.008 410.416 247.792 403.412 255.648C402.788 256.36 402.072 256.98 401.282 257.493C399.204 258.856 396.657 259.965 394.465 261.264C381.459 268.969 368.196 276.189 355.138 283.815C352.501 285.355 345.893 288.395 344.137 290.535C341.285 294.012 339.338 299.763 337.068 303.753C334.642 308.486 330.97 313.39 328.786 318.149C328.233 319.353 328.524 324.469 328.332 326.18C327.472 333.869 327.274 341.727 326.611 349.459C326.22 353.774 325.589 357.992 325.486 362.367C325.447 363.982 324.92 366.135 324.765 367.832L323.576 380.457C323.154 385.022 323.408 387.71 320.532 391.638C318.073 394.995 314.874 398.197 310.57 398.679C307.5 399.022 303.436 399.151 300.422 398.356C296.58 396.982 292.377 393.685 288.982 391.297C282.206 386.531 275.703 381.408 269 376.533C263.454 372.849 258.033 368.952 252.627 365.055C250.856 363.778 248.991 362.665 247.287 361.424C245.467 360.95 236.647 360.709 235.129 361.652C234.791 362.389 216.405 375.093 214.319 376.628C208.681 380.757 203.022 384.856 197.341 388.921C193.281 391.833 188.637 395.457 184.218 397.555C179.805 399.525 173.434 399.54 169.204 397.234C162.813 393.754 160.187 388.381 159.337 381.311C158.833 377.111 158.655 373.621 158.377 369.461L157.24 354.56C156.385 342.739 154.795 329.844 154.486 318.087C151.535 313.447 149.081 309.544 146.448 304.691C144.009 300.194 141.615 293.516 138.501 289.838C137.672 288.86 130.202 285.127 128.442 284.109C120.582 279.566 112.721 275.012 104.782 270.615C99.1411 267.562 93.5634 264.388 88.0527 261.093C84.2123 258.768 79.6515 256.519 77.4158 252.581C72.9774 244.763 74.7799 235.118 81.7948 229.61C84.9087 227.164 88.1037 225.65 91.5213 223.933C103.606 217.861 115.808 212.198 127.692 205.701C130.497 204.164 134.309 202.761 136.851 200.918L137.08 200.749C136.998 200.573 136.916 200.397 136.834 200.22C135.545 197.273 135.04 193.814 134.136 190.723C132.532 185.239 131.02 179.738 129.509 174.231L124.302 155.602C122.599 149.675 119.104 140.301 120.255 134.159C121.044 129.949 124.141 125.051 127.753 122.935C129.896 121.633 134.231 119.617 136.814 119.913C143.185 120.642 150.701 123.584 156.713 125.539L181.158 133.345C186.315 134.978 192.391 137.039 197.576 138.296Z" fill="#FE850D"></path>
<path d="M207 355C210.65 355.464 216.117 357.488 219.908 358.402C225.038 359.64 229.472 360.101 234.632 360.795L235 361.447C234.665 362.163 216.414 374.508 214.343 376C213.037 373.658 213.636 369.975 212.877 367.291C211.658 362.978 209.229 358.847 207 355Z" fill="#D25E00"></path>
<path d="M247 361.478C247.829 361.017 255.294 360.092 257.001 359.817C264.055 358.684 270.243 356.718 277 355C274.49 358.439 270.876 364.696 270.232 368.867C269.901 371.015 270.058 373.89 269.257 376C263.572 372.459 258.015 368.714 252.473 364.968C250.658 363.741 248.747 362.671 247 361.478Z" fill="#D25E00"></path>
<path d="M163 234.883C170.954 223.797 185.227 218.047 198.095 220.6C207.791 222.523 215.487 228.201 221 236.954C220.602 238.923 220.093 240.214 219.281 242C215.592 240.22 209.662 238.546 205.675 237.479C202.924 236.744 200.129 236.298 197.397 235.34C196.598 235.688 192.534 235.229 191.346 235.188C186.748 235.031 182.138 234.981 177.547 235.337C175.554 235.478 168.255 237.411 167.252 237.072C165.959 238.273 164.845 239.265 163.484 240.375C163.204 238.403 163.052 236.862 163 234.883Z" fill="#D25E00"></path>
<path d="M167 236.963C167.638 236.351 168.298 235.762 168.981 235.197C177.355 228.27 185.915 226.364 196.622 227.174C196.648 230.124 196.954 232.58 198 235.36C197.178 235.683 192.999 235.257 191.777 235.22C187.049 235.074 182.308 235.028 177.587 235.358C175.538 235.488 168.031 237.277 167 236.963Z" fill="#F9FAF8"></path>
<path d="M261 239.274C262.707 236.092 266.852 231.696 269.73 229.505C278.517 222.811 287.76 220.92 298.424 222.552C305.795 223.68 315.607 228.992 320 235.345C319.703 236.852 319.698 238.603 319.065 239.907L318.731 240.013C317.52 239.34 316.491 238.569 315.321 237.884C314.202 237.996 308.784 236.58 307.665 236.165C301.276 235.369 296.387 234.703 289.804 235.319C287.084 235.573 283.282 236.453 280.839 236.582C279.657 236.925 278.461 237.192 277.274 237.506C275.847 237.882 274.42 238.288 273.01 238.731C270.812 239.422 268.645 240.221 266.473 240.999C266.456 241.006 265.951 240.858 265.863 240.811L263.144 243C262.016 241.523 261.631 241.008 261 239.274Z" fill="#D25E00"></path>
<path d="M266 240.808C271.097 235.208 272.809 234.799 278.35 231C278.86 232.87 279.424 234.658 280 236.5C278.896 236.85 277.778 237.122 276.668 237.441C275.333 237.824 273.999 238.238 272.681 238.689C270.627 239.393 268.6 240.206 266.57 241C266.554 241.006 266.082 240.855 266 240.808Z" fill="#F9FAF8"></path>
<path d="M309.154 232C312.212 233.804 313.393 234.552 316 236.994C314.831 237.098 309.169 235.788 308 235.405C308.637 234.249 308.83 233.258 309.154 232Z" fill="#F9FAF8"></path>
<path d="M223.429 264.06C229.031 263.473 235.642 267.404 241.201 267.538C246.6 267.551 252.212 265.3 257.532 265.004C261.836 264.766 262.892 268.856 261.293 272.149C260.181 274.435 259.196 275.488 257.3 277.097C247.716 284.226 232.135 283.677 223.487 274.817C220.575 271.833 219.812 267.024 223.429 264.06Z" fill="#F9FAF8"></path>
<path d="M223 272.053C223.143 272.036 223.739 271.982 223.816 272.006C225.713 272.554 232.895 273.951 234 275C231.605 275.035 225.275 273.109 223 272.053Z" fill="#787478"></path>
<path d="M191.609 177.225C195.099 176.85 200.306 176.587 202.903 179.503C205.167 182.045 203.525 184.872 201.593 186.883C193.951 186.996 190.041 185.505 183.036 190.573C180.529 192.261 178.939 195.64 175.475 193.064C173.127 191.32 172.004 188.666 174.122 186.117C178.668 180.646 184.915 178.035 191.609 177.225Z" fill="#D25E00"></path>
<path d="M284.355 177.204C290.447 176.512 298.079 177.543 303.204 180.921C305.793 182.543 308.951 184.76 309.914 187.746C310.638 189.992 306.606 192.684 304.776 193C302.995 191.842 301.387 190.433 299.57 189.216C294.11 185.562 287.925 185.903 281.59 186.42C277.694 182.068 277.867 178.187 284.355 177.204Z" fill="#D25E00"></path>
</g>
<defs>
<clipPath id="clip0_10_30">
<rect width="484" height="474" fill="white"></rect>
</clipPath>
</defs>
</svg>