<svg width="496" height="496" viewBox="0 0 496 496" fill="none" xmlns="http://www.w3.org/2000/svg">
<g clip-path="url(#clip0_9_119)">
<path d="M210.305 146.033C213.072 142.788 216.687 135.665 218.834 131.794L235.009 101.98C237.253 97.8277 240.246 91.4119 243.428 88.2804C249.357 82.7069 260.032 82.5774 266.129 87.8854C270.837 91.9822 273.642 99.9982 276.894 105.326C284.892 118.419 291.187 132.824 299.552 145.627C312.137 142.262 324.574 138.122 337.099 134.445C344.957 132.14 353.267 129.242 361.477 128.285C363.757 128.019 366.864 129.227 368.869 130.257C375.402 133.718 379.202 141.723 377.557 149.003C375.569 157.786 372.837 166.504 370.289 175.178L360.884 208.349C363.599 208.986 370.702 212.633 373.609 214.066L394.924 224.655C407.587 230.959 426.584 236.046 422.602 254.333C421.382 259.938 416.382 263.133 411.802 265.795C400.652 272.148 389.444 278.395 378.179 284.54C373.369 287.2 362.397 292.105 358.862 295.813C355.574 299.26 352.379 307.058 349.787 311.465C347.939 314.603 344.379 319.29 343.542 322.708C342.884 325.385 343.184 328.315 342.884 331.055C341.392 344.74 340.544 358.525 339.362 372.243C338.937 377.19 338.659 386.668 337.134 391.068C335.969 394.435 333.217 397.998 330.162 399.855C326.234 402.245 319.284 402.573 314.959 401.423C308.694 399.755 290.289 385.743 284.342 381.265C281.277 379.12 261.802 365.385 259.617 364.93C256.604 364.775 251.749 364.413 248.962 365.713C241.688 370.36 234.925 375.173 227.746 379.898C219.016 386.258 206.276 395.68 196.829 400.725C190.953 403.865 178.799 401.275 175.538 395.333C173.813 392.855 172.375 389.568 172.038 386.63C170.964 377.268 170.562 367.29 169.857 357.885C168.982 346.223 167.102 333.99 166.848 322.413C164.647 318.945 162.384 315.463 160.2 311.89C157.636 307.698 154.118 298.473 150.881 295.278C149.757 294.17 141.046 289.54 139.143 288.485L113.691 274.318C107.229 270.745 100.861 267.265 94.6968 263.303C83.0896 255.845 85.2861 240.108 96.7631 233.744C109.493 226.685 122.385 221.604 135.25 214.884C139.921 212.411 144.889 210.864 149.191 207.681L139.177 171.582C136.686 162.822 133.442 153.997 132.438 144.955C132.183 142.652 133.482 138.893 134.678 136.943C143.41 122.696 157.206 129.524 169.332 133.33C183.226 137.692 196.795 141.533 210.305 146.033Z" fill="#F48116"></path>
<path d="M259.617 364.93C261.669 364.47 264.934 364.05 267.102 363.893C274.834 363.34 282.657 360.175 290.102 359.105C285.217 366.945 282.907 371.618 284.342 381.265C281.277 379.12 261.802 365.385 259.617 364.93Z" fill="#C65900"></path>
<path d="M219.594 358.855L219.866 358.898C226.525 359.893 233.832 363.435 240.924 363.823C242.487 363.908 247.887 364.888 248.962 365.713C241.688 370.36 234.925 375.173 227.746 379.898C226.813 372.483 223.761 365.023 219.594 358.855Z" fill="#C65900"></path>
<path d="M274.788 222.318C272.525 221.18 271.078 221.766 268.895 219.392C266.275 216.542 263.975 209.284 267.393 206.303C268.823 206.776 268.85 211.043 270.155 212.344C275.895 218.07 295.785 202.396 300.743 199.065C303.088 197.468 305.55 196.051 308.108 194.824C315.565 191.309 325.935 189.867 332.315 196.496C334.113 198.364 335.818 204.448 333.288 206.352C331.868 206.78 330.693 206.237 329.535 205.491C318.033 198.081 306.615 206.769 296.895 212.858C295.913 213.474 294.763 214.174 293.738 214.915L293.558 215.048C299.345 214.851 306.968 214.982 312.748 215.209C318.398 215.121 324.185 214.885 329.82 215.212C329.713 218.701 329.65 221.224 328.73 224.878C321.653 253.042 277.968 253.085 274.74 222.715C274.755 222.583 274.773 222.45 274.788 222.318Z" fill="#C95E01"></path>
<path d="M312.747 215.209C318.397 215.121 324.185 214.885 329.82 215.212C329.713 218.701 329.65 221.224 328.73 224.878C321.653 253.042 277.967 253.085 274.74 222.715C274.755 222.582 274.773 222.45 274.788 222.318C278.415 222.213 284.008 219.724 287.388 218.313C287.538 218.347 287.69 218.382 287.84 218.417C287.862 218.664 287.895 219.61 288.22 219.673C290.955 220.203 292.995 220.608 295.453 221.92C293.205 223.876 291.55 225.044 288.595 225.699C289.695 227.866 290.373 229.294 292.098 231.079C296.835 236.011 303.937 235.607 308.555 230.738C313.04 226.01 312.875 221.244 312.747 215.209Z" fill="#F9F8F7"></path>
<path d="M214.777 215.198C205.451 210.553 194.962 201.306 182.962 204.811C180.446 205.546 177.628 208.122 175.522 207.727C174.397 206.791 174.256 205.644 174.028 204.237C172.951 197.594 181.725 193.831 187.154 193.508C192.131 193.212 197.498 194.57 202 196.784C205.741 198.457 207.721 200.03 211.44 202.142C216.453 204.988 231.917 217.736 237.257 212.956C238.101 212.199 238.201 208.632 239.223 207.433C242.894 207.264 241.638 217.605 238.63 219.708C237.107 220.773 235.37 221.445 234.163 222.227C234.341 226.178 232.107 231.51 230.003 234.817C221.032 248.923 199.098 248.791 187.857 237.571C181.213 230.939 179.558 224.366 179.372 215.26C182.202 215.19 195.177 214.72 197.29 215.444C198.588 215.008 212.591 215.076 214.777 215.198Z" fill="#C95E01"></path>
<path d="M179.372 215.26C182.202 215.189 195.177 214.719 197.29 215.444L197.057 218.294C200.488 219.063 202.058 219.431 205.125 221.02C202.732 223.713 201.37 224.298 197.942 225.342C200.809 232.003 206.791 237.216 214.409 233.736C217.692 232.198 220.225 229.413 221.445 225.999C222.289 223.655 222.369 222.005 222.245 219.565C225.577 220.992 230.51 222.507 234.163 222.227C234.341 226.178 232.107 231.51 230.003 234.816C221.032 248.922 199.098 248.791 187.857 237.571C181.213 230.939 179.558 224.365 179.372 215.26Z" fill="#F9F8F7"></path>
<path d="M288.882 258.265C291.87 258.14 293.297 259.727 294.912 262.11C297.797 266.442 299.247 271.895 298.23 277.057C297.9 278.727 296.91 280.45 294.935 279.92C294.195 279.02 294.06 273.565 293.62 271.88C293.242 270.432 293.145 269.972 292.537 268.455C277.92 279.12 270.62 279.395 253.127 277.668C248.007 277.163 240.002 278.285 235.062 279.615C232.43 280.437 229.871 281.48 227.411 282.725C225.491 283.69 224.382 285.622 222.377 284.455C222.06 283.867 221.754 283.508 221.949 282.76C222.403 281.023 225.028 279.335 226.49 278.485C236.071 272.912 247.593 272.425 258.37 273.375C263.565 273.832 268.112 274.36 273.27 273.275C280.11 271.835 285.052 268.492 290.425 264.315C289.245 262.317 287.58 260.47 288.882 258.265Z" fill="#C95E01"></path>
</g>
<defs>
<clipPath id="clip0_9_119">
<rect width="496" height="496" fill="white"></rect>
</clipPath>
</defs>
</svg>