<svg width="496" height="496" viewBox="0 0 496 496" fill="none" xmlns="http://www.w3.org/2000/svg">
<g clip-path="url(#clip0_9_102)">
<path d="M212.134 144.158C214.901 140.913 218.516 133.79 220.662 129.919L236.837 100.105C239.081 95.9525 242.074 89.5368 245.257 86.4053C251.185 80.8318 261.86 80.7022 267.957 86.0102C272.665 90.107 275.47 98.123 278.722 103.451C286.72 116.543 293.015 130.949 301.38 143.752C313.965 140.387 326.402 136.247 338.927 132.57C346.785 130.265 355.095 127.367 363.305 126.41C365.585 126.144 368.692 127.352 370.697 128.382C377.23 131.843 381.03 139.848 379.385 147.128C377.397 155.911 374.665 164.629 372.117 173.303L362.712 206.473C365.427 207.111 372.53 210.758 375.437 212.191L396.752 222.779C409.415 229.084 428.412 234.171 424.43 252.458C423.21 258.063 418.21 261.258 413.63 263.92C402.48 270.273 391.272 276.52 380.007 282.665C375.197 285.325 364.225 290.23 360.69 293.938C357.402 297.385 354.207 305.182 351.615 309.59C349.767 312.727 346.207 317.415 345.37 320.832C344.712 323.51 345.012 326.44 344.712 329.18C343.22 342.865 342.372 356.65 341.19 370.367C340.765 375.315 340.487 384.793 338.962 389.193C337.797 392.56 335.045 396.123 331.99 397.98C328.062 400.37 321.112 400.697 316.787 399.547C310.522 397.88 292.117 383.868 286.17 379.39C283.105 377.245 263.63 363.51 261.445 363.055C258.432 362.9 253.577 362.537 250.79 363.837C243.516 368.485 236.753 373.297 229.575 378.022C220.844 384.382 208.104 393.805 198.657 398.85C192.781 401.99 180.627 399.4 177.366 393.457C175.641 390.98 174.203 387.693 173.866 384.755C172.793 375.393 172.39 365.415 171.685 356.01C170.81 344.348 168.93 332.115 168.677 320.538C166.475 317.07 164.212 313.588 162.028 310.015C159.464 305.823 155.946 296.597 152.709 293.402C151.585 292.295 142.874 287.665 140.971 286.61L115.519 272.443C109.058 268.87 102.689 265.39 96.5252 261.427C84.9179 253.97 87.1144 238.232 98.5914 231.868C111.321 224.81 124.213 219.729 137.078 213.009C141.749 210.535 146.718 208.989 151.019 205.805L141.005 169.707C138.514 160.947 135.27 152.122 134.266 143.08C134.011 140.777 135.311 137.018 136.506 135.068C145.238 120.821 159.034 127.649 171.16 131.455C185.055 135.816 198.624 139.658 212.134 144.158Z" fill="#F48116"></path>
<path d="M261.445 363.055C263.498 362.595 266.763 362.175 268.93 362.017C276.663 361.465 284.485 358.3 291.93 357.23C287.045 365.07 284.735 369.743 286.17 379.39C283.105 377.245 263.63 363.51 261.445 363.055Z" fill="#C65900"></path>
<path d="M221.422 356.98L221.694 357.022C228.353 358.017 235.66 361.56 242.752 361.948C244.315 362.033 249.715 363.012 250.79 363.837C243.516 368.485 236.753 373.297 229.575 378.022C228.641 370.607 225.589 363.148 221.422 356.98Z" fill="#C65900"></path>
<path d="M189.828 196.648C187.903 196.479 168.266 194.712 175.985 185.797C176.9 184.741 184.535 186.69 186.214 186.693C192.87 187.306 198.532 187.27 204.856 185.044C208.548 183.744 214.903 179.446 217.081 184.546C219.224 189.05 212.169 192.517 208.875 193.892C208.469 194.06 208.058 194.214 207.642 194.352C215.138 197.968 220.254 206.091 222.876 213.71C224.225 217.631 226.083 225.115 226.226 229.268C228.169 230.386 227.949 231.218 227.987 233.321C223.538 234.503 222.776 233.576 219.616 234.131L225.051 234.308C224.908 239.753 224.477 244.606 221.799 249.488C217.354 257.592 209.213 262.053 199.999 261.695C193.704 261.465 187.777 258.678 183.588 253.973C179.268 249.204 177.424 243.79 176.375 237.56C176.233 236.648 176.134 234.766 176.056 233.782C173.916 233.578 170.167 233.712 168.63 232.678C168.005 231.512 168.579 230.644 169.586 229.992L170.775 229.208C171.221 228.755 174.667 226.946 175.565 226.425C175.449 225.132 175.614 223.995 175.823 222.719C177.203 214.274 181.692 200.924 189.828 196.648Z" fill="#C65900"></path>
<path d="M176.522 225.87C175.644 222.874 179.716 210.83 181.503 207.883C183.116 204.55 188.439 197.807 192.157 197.135C194.634 196.687 203.329 195.279 205.208 195.678C216.666 198.11 222.754 213.225 224.552 223.484C224.88 225.358 224.982 227.921 225.678 229.493C222.901 229.045 214.955 229.215 211.702 229.215C202.734 229.169 193.766 229.228 184.8 229.391C180.49 229.492 176.205 229.62 171.899 229.916C171.214 229.963 171.321 229.907 170.834 229.529L170.775 229.208C171.221 228.755 174.667 226.946 175.565 226.425L176.522 225.87Z" fill="#F48116"></path>
<path d="M197.984 221.47L199.509 221.628L199.626 221.9C190.799 222.428 181.691 224.535 173.693 228.266C172.735 228.713 171.843 229.207 170.834 229.529L170.775 229.208C171.221 228.755 174.667 226.946 175.565 226.425L176.522 225.87C181.431 222.964 192.236 221.519 197.984 221.47Z" fill="#B64700"></path>
<path d="M197.984 221.47C199.739 221.242 201.512 221.18 203.278 221.284L203.48 221.604L204.028 221.488L203.752 221.584L203.883 221.382L204.038 221.437L203.496 221.64L203.443 221.336L203.286 221.676C202.067 221.767 200.847 221.841 199.626 221.9L199.509 221.628L197.984 221.47Z" fill="#C65900"></path>
<path d="M219.616 234.131L225.051 234.308C224.908 239.753 224.477 244.606 221.799 249.488C217.354 257.592 209.213 262.053 199.999 261.695C193.704 261.465 187.777 258.678 183.588 253.973C179.268 249.204 177.424 243.79 176.375 237.56C180.191 237.281 184.378 236.363 188.33 236.68L188.73 237.191C189.56 244.089 193.143 249.727 200.286 251.525C202.985 252.205 207.861 251.393 210.218 249.839L210.244 249.453C206.736 244.693 208.963 238.935 214.844 237.915C215.897 237.732 217.448 237.975 218.535 238.099C218.496 236.847 218.275 235.401 218.786 234.337L219.616 234.131Z" fill="#F8F7F5"></path>
<path d="M176.056 233.782C180.279 233.73 184.502 233.734 188.725 233.793L188.73 237.191L188.33 236.68C184.378 236.363 180.191 237.281 176.375 237.56C176.233 236.648 176.134 234.766 176.056 233.782Z" fill="#EADCD2"></path>
<path d="M270.377 228.004L270.917 228.945L271.255 229.456C274.177 229.616 279.22 229.334 282.342 229.291C289.952 229.175 297.562 229.134 305.172 229.17C308.32 229.19 311.637 229.23 314.777 229.252C316.707 229.266 322.372 230.036 323.775 229.741L324.522 229.071C326.015 229.317 328.612 230.572 328.167 232.424C326.59 234.077 322.167 233.197 320.297 233.928C320.49 234.959 320.32 236.42 320.172 237.481C319.202 243.736 317.65 248.557 313.53 253.548C305.362 263.513 289.537 264.59 280.037 255.908C273.33 249.775 271.602 242.708 271.14 234.01C266.3 232.678 270.365 230.954 270.377 228.004Z" fill="#F8F7F5"></path>
<path d="M270.377 228.004L270.917 228.945L271.255 229.456C274.177 229.616 279.22 229.334 282.342 229.291C289.952 229.175 297.562 229.134 305.172 229.17C308.32 229.19 311.637 229.23 314.777 229.252C316.707 229.266 322.372 230.036 323.775 229.741L324.522 229.071C326.015 229.317 328.612 230.572 328.167 232.424C326.59 234.077 322.167 233.197 320.297 233.928C320.49 234.959 320.32 236.42 320.172 237.481C317.84 237.953 312.7 236.998 311.265 237.497L311.18 238.352C310.17 239.013 305.845 237.368 303.272 239.758C299.937 242.859 299.822 246.875 302.647 250.395C289.922 255.338 281.79 246.198 281.472 234.004C278.36 233.812 274.337 233.974 271.14 234.01C266.3 232.678 270.365 230.954 270.377 228.004Z" fill="#C65900"></path>
<path d="M311.22 234.04L320.298 233.928C320.49 234.959 320.32 236.42 320.173 237.481C317.84 237.953 312.7 236.998 311.265 237.497C311.193 236.512 311.228 235.064 311.22 234.04Z" fill="#EADCD2"></path>
<path d="M288.355 194.641C283.975 192.556 278.045 190.008 275.277 185.863C273.45 183.129 275.972 177.677 279.902 179.482C282.247 180.56 283.98 181.822 286.175 183.164C289.57 185.197 293.247 186.716 297.087 187.67C303.065 189.19 308.162 188.9 313.992 186.866C316.375 186.036 320.155 184.609 321.06 188.114C322.68 194.401 312.627 196.088 308.43 197.435C308.595 197.567 308.757 197.702 308.917 197.841C316.505 204.458 320.035 217.309 320.815 226.99L320.057 226.673C319.582 223.934 319.27 220.978 318.615 218.304C316.852 211.119 313.227 202.82 307.1 198.335L306.38 197.798C300.13 197.356 296.405 196.844 290.252 195.281C282.51 198.665 277.712 205.389 274.672 213.097C273.44 216.223 272.532 219.469 271.97 222.782C271.76 224.051 271.237 227.94 270.917 228.945L270.377 228.004C271.292 222.349 272.062 217.606 274.167 212.196C276.667 205.776 281.807 197.494 288.355 194.641Z" fill="url(#paint0_linear_9_102)"></path>
<path d="M241.784 265.605C245.548 265.39 259.813 264.487 261.408 268.145C261.44 268.972 261.153 269.238 260.693 269.933C259.565 270.725 255.645 269.448 253.58 269.293L253.31 269.275C249.296 268.963 245.262 268.975 241.249 269.313C239.035 269.485 236.122 269.922 233.984 269.86C233.285 269.392 233.294 269.46 233.039 268.598C232.137 265.545 239.747 265.75 241.784 265.605Z" fill="#C65900"></path>
<path d="M320.815 226.99C321.788 227.732 322.07 227.51 323.305 228.692L322.975 228.519L323.263 228.798L322.957 228.531L322.845 228.654C313.153 224.407 293.598 221.538 283.255 223.836L283.302 223.665C292.72 220.396 310.782 222.821 320.057 226.673L320.815 226.99Z" fill="#B64700"></path>
</g>
<defs>
<linearGradient id="paint0_linear_9_102" x1="292.022" y1="232.733" x2="301.83" y2="182.873" gradientUnits="userSpaceOnUse">
<stop stop-color="#BC4500"></stop>
<stop offset="1" stop-color="#CD5D01"></stop>
</linearGradient>
<clipPath id="clip0_9_102">
<rect width="496" height="496" fill="white"></rect>
</clipPath>
</defs>
</svg>