<svg width="496" height="496" viewBox="0 0 496 496" fill="none" xmlns="http://www.w3.org/2000/svg">
<g clip-path="url(#clip0_9_165)">
<path d="M213.305 148.033C216.072 144.788 219.687 137.665 221.834 133.794L238.009 103.98C240.253 99.8277 243.246 93.4119 246.428 90.2804C252.357 84.7069 263.032 84.5774 269.129 89.8854C273.837 93.9822 276.642 101.998 279.894 107.326C287.892 120.419 294.187 134.824 302.552 147.627C315.137 144.262 327.574 140.122 340.099 136.445C347.957 134.14 356.267 131.242 364.477 130.285C366.757 130.019 369.864 131.227 371.869 132.257C378.402 135.718 382.202 143.723 380.557 151.003C378.569 159.786 375.837 168.504 373.289 177.178L363.884 210.349C366.599 210.986 373.702 214.633 376.609 216.066L397.924 226.655C410.587 232.959 429.584 238.046 425.602 256.333C424.382 261.938 419.382 265.133 414.802 267.795C403.652 274.148 392.444 280.395 381.179 286.54C376.369 289.2 365.397 294.105 361.862 297.813C358.574 301.26 355.379 309.058 352.787 313.465C350.939 316.603 347.379 321.29 346.542 324.708C345.884 327.385 346.184 330.315 345.884 333.055C344.392 346.74 343.544 360.525 342.362 374.243C341.937 379.19 341.659 388.668 340.134 393.068C338.969 396.435 336.217 399.998 333.162 401.855C329.234 404.245 322.284 404.573 317.959 403.423C311.694 401.755 293.289 387.743 287.342 383.265C284.277 381.12 264.802 367.385 262.617 366.93C259.604 366.775 254.749 366.413 251.962 367.713C244.688 372.36 237.925 377.173 230.746 381.898C222.016 388.258 209.276 397.68 199.829 402.725C193.953 405.865 181.799 403.275 178.538 397.333C176.813 394.855 175.375 391.568 175.038 388.63C173.964 379.268 173.562 369.29 172.857 359.885C171.982 348.223 170.102 335.99 169.848 324.413C167.647 320.945 165.384 317.463 163.2 313.89C160.636 309.698 157.118 300.473 153.881 297.278C152.757 296.17 144.046 291.54 142.143 290.485L116.691 276.318C110.229 272.745 103.861 269.265 97.6968 265.303C86.0896 257.845 88.2861 242.108 99.7631 235.744C112.493 228.685 125.385 223.604 138.25 216.884C142.921 214.411 147.889 212.864 152.191 209.681L142.177 173.582C139.686 164.822 136.442 155.997 135.438 146.955C135.183 144.652 136.482 140.893 137.678 138.943C146.41 124.696 160.206 131.524 172.332 135.33C186.226 139.692 199.795 143.533 213.305 148.033Z" fill="#F48116"></path>
<path d="M276.74 235.16C278.79 232.996 279.42 232.811 282.503 232.719C293.083 232.506 303.665 232.451 314.245 232.555C319.29 232.581 324.42 232.504 329.445 232.883C332.768 233.133 334.12 236.869 331.557 239.127L332.003 239.63C332.16 240.868 332.073 242.019 331.978 243.261C331.38 251.13 328.035 257.537 321.897 262.552C316.272 267.147 308.822 268.66 301.65 267.867C294.415 267.102 287.788 263.468 283.253 257.78C279.51 253.058 277.115 245.119 277.77 239.225C277.312 237.77 276.92 236.68 276.74 235.16Z" fill="#F7F5F4"></path>
<path d="M276.74 235.16C278.79 232.996 279.42 232.811 282.503 232.719C293.083 232.506 303.665 232.451 314.245 232.555C319.29 232.581 324.42 232.504 329.445 232.883C332.768 233.133 334.12 236.869 331.557 239.127C327.197 239.654 321.877 238.114 317.897 239.457C315.937 240.118 316.09 243.211 317.267 244.899C318.152 246.141 319.518 246.954 321.033 247.136C323.425 247.423 324.797 246.414 326.485 245.028C323.95 251.887 318.975 256.553 311.4 256.913C307.437 257.118 303.563 255.705 300.66 253C296.71 249.394 294.985 244.588 294.712 239.35C289.102 239.25 283.347 239.433 277.77 239.225C277.312 237.77 276.92 236.68 276.74 235.16Z" fill="#C85800"></path>
<path d="M180.975 239.211C180.399 237.854 179.546 236.059 180.313 234.616C180.873 233.562 182.038 233.324 183.111 233.122C188.229 232.157 229.952 232.256 233.945 233.147C237.399 235.866 235.892 236.231 234.787 239.255C235.6 240.804 234.365 248.146 233.752 249.963C228.952 264.182 213.759 271.157 199.677 266.992C193.023 265.07 187.423 260.547 184.14 254.447C182.323 251.042 179.959 242.557 180.975 239.211Z" fill="#F7F5F4"></path>
<path d="M180.975 239.211C180.399 237.854 179.546 236.059 180.313 234.616C180.873 233.562 182.038 233.324 183.111 233.122C188.229 232.157 229.952 232.256 233.945 233.147C237.399 235.866 235.892 236.231 234.787 239.255C232.807 239.327 228.677 239.367 226.727 238.926C222.541 237.98 217.723 240.513 220.948 245.073C221.727 246.187 222.928 246.933 224.272 247.137C226.748 247.528 228.301 246.452 230.192 245.169C227.48 251.912 223.682 256.17 216.038 256.895C212.066 257.287 208.105 256.05 205.064 253.462C200.73 249.832 198.991 244.82 198.549 239.348C193.271 239.449 186.228 239.367 180.975 239.211Z" fill="#C85800"></path>
<path d="M326.147 258.137C326.592 258.084 327.04 258.047 327.487 258.024C333.182 257.722 340.782 260.259 344.885 264.194C351.48 270.522 353.29 279.039 346.357 285.997C340.34 292.034 333.132 293.339 324.955 293.509C314.815 293.174 301.265 289.897 300.04 277.109C299.71 273.669 301.472 271.004 303.69 268.524C314.887 267.247 318.09 266.304 326.147 258.137Z" fill="#FEBECF"></path>
<path d="M182.958 258.164C184.444 257.936 185.563 258.001 187.061 258.036C194.337 266.056 199.322 267.604 209.828 268.479C218.595 278.451 210.478 288.624 200.064 291.894C197.873 292.584 196.09 292.904 193.817 293.279C186.263 294.089 176.925 293.216 170.532 288.796C163.504 283.936 160.247 274.606 165.833 267.309C169.907 261.984 176.488 259.146 182.958 258.164Z" fill="#FEBECF"></path>
<path d="M234.932 277.299C237.343 277.08 238.251 278.085 240.019 279.381C248.533 285.629 258.966 283.104 267.911 279.153C275.781 275.675 283.153 277.894 285.642 285.959C286.497 288.722 285.929 291.302 282.756 292.429C272.209 292.644 284.317 279.085 266.958 287.559C257.489 292.182 239.559 291.867 232.823 283.033C230.932 280.553 232.511 278.517 234.932 277.299Z" fill="#F7F5F4"></path>
<path d="M225.397 185.283C230.828 185.893 231.435 189.518 230.018 194.192C227.328 203.067 220.115 209.958 211.088 212.127C208.072 212.851 205.495 212.791 202.437 212.743C198.659 212.081 195.973 208.886 197.87 205.303C199.272 202.654 206.154 203.693 209.134 202.561C213.873 201.032 217.217 197.821 219.518 193.446C221.104 190.431 221.765 186.313 225.397 185.283Z" fill="#C85800"></path>
<path d="M283.68 185.301C289.568 184.768 289.355 188.519 291.388 192.651C295.56 201.128 301.563 202.31 310.248 202.759C314.833 202.996 315.735 208.481 310.61 211.274C306.81 212.368 303.525 212.162 299.67 211.329C292.998 209.889 287.668 205.667 284.133 199.904C282.365 197.021 279.73 191.937 280.66 188.444C281.123 186.703 282.213 186.123 283.68 185.301Z" fill="#C85800"></path>
<path d="M264.683 193.099L265.248 193.257C266.575 194.435 268.743 201.313 271.645 203.576C273.243 204.822 280.54 209.46 280.803 209.96C280.653 210.899 280.675 210.626 279.923 211.461L279.603 211.478C272.6 211.782 259.68 198.116 264.683 193.099Z" fill="#C85800"></path>
<path d="M250.488 197.332L251.418 197.615C252.22 198.448 253.325 202.422 253.87 203.727C256.508 210.065 259.643 209.614 265.33 211.637C266.003 211.876 266.07 212.275 266.218 212.809C265.763 213.786 265.968 213.456 264.99 214.128C255.573 215.328 245.624 202.18 250.488 197.332Z" fill="#C85800"></path>
</g>
<defs>
<clipPath id="clip0_9_165">
<rect width="496" height="496" fill="white"></rect>
</clipPath>
</defs>
</svg>